<svg width="41" height="34" viewBox="0 0 41 34" fill="none" xmlns="http://www.w3.org/2000/svg">
<path d="M25.7612 31.3069V31.178H18.1854V31.3069L18.1867 31.3707C18.1867 32.0849 17.9219 32.7699 17.4503 33.275C16.9788 33.78 16.3393 34.0637 15.6725 34.0637C15.0057 34.0637 14.3662 33.78 13.8947 33.275C13.4232 32.7699 13.1583 32.0849 13.1583 31.3707L13.1596 31.3041V31.178H12.296C11.9278 31.178 11.5706 31.0431 11.2839 30.7957C10.9971 30.5483 10.7979 30.2033 10.7195 29.818L10.7181 29.8067L5.66984 4.20324L1.35691 3.43399C0.946144 3.34512 0.583721 3.08869 0.346205 2.71888C0.108689 2.34907 0.0146845 1.89484 0.0840507 1.45216C0.153417 1.00948 0.380721 0.613023 0.717942 0.346541C1.05516 0.0800595 1.47589 -0.0355729 1.89123 0.0240736L1.88329 0.0226569L7.28075 0.98599C7.93807 1.10641 8.45387 1.63907 8.59142 2.32191L8.59275 2.33324L9.50797 6.95724L25.2533 8.36257C25.1561 8.9166 25.1065 9.47901 25.1052 10.0427V10.0484C25.1052 10.6179 25.1515 11.1761 25.2414 11.7187L25.2335 11.662C24.8001 11.8083 24.4323 12.1204 24.2003 12.5388C23.9683 12.9572 23.8883 13.4525 23.9757 13.9301L23.9744 13.9173L24.9253 21.2698C24.9835 21.7416 25.1845 22.1552 25.4781 22.4669C25.7453 22.7517 26.1116 22.9302 26.5177 22.9344H26.519C26.6089 22.9344 26.6976 22.9245 26.7822 22.9075L26.7729 22.9089C27.2239 22.7827 27.6132 22.4775 27.8619 22.0554C28.1107 21.6332 28.2003 21.1255 28.1127 20.6352L28.114 20.6479L27.5956 16.6501C28.4184 17.5671 29.406 18.2964 30.4988 18.794C31.5916 19.2916 32.7671 19.5473 33.9546 19.5457C34.0114 19.5457 34.0683 19.5457 34.1238 19.5372L34.2468 19.5302L33.362 25.058C33.3408 25.192 33.2761 25.3137 33.1793 25.4015C33.0825 25.4894 32.9599 25.5378 32.833 25.5382H13.1728L13.6053 27.7298H32.3291C32.7458 27.7475 33.1399 27.9372 33.4289 28.2591C33.718 28.581 33.8796 29.0102 33.88 29.4568C33.8803 29.9034 33.7193 30.3329 33.4308 30.6553C33.1422 30.9777 32.7484 31.1681 32.3317 31.1865H30.7896V31.3154C30.7896 32.0297 30.5247 32.7146 30.0532 33.2197C29.5817 33.7248 28.9422 34.0085 28.2754 34.0085C27.6086 34.0085 26.9691 33.7248 26.4976 33.2197C26.0261 32.7146 25.7612 32.0297 25.7612 31.3154V31.3069ZM27.5572 31.3069C27.5575 31.4126 27.5783 31.5172 27.6182 31.6138C27.6582 31.7105 27.7164 31.7973 27.7893 31.8686C27.8622 31.9399 27.9481 31.9942 28.0416 32.0281C28.1351 32.062 28.2342 32.0747 28.3325 32.0654C28.4308 32.0562 28.5263 32.0252 28.6128 31.9743C28.6994 31.9235 28.7751 31.854 28.8353 31.7701C28.8954 31.6863 28.9387 31.59 28.9623 31.4874C28.9859 31.3847 28.9893 31.2779 28.9724 31.1737V31.178H27.5705C27.5634 31.2205 27.5598 31.2637 27.5599 31.3069H27.5572ZM14.9557 31.3069C14.956 31.4126 14.9767 31.5172 15.0167 31.6138C15.0566 31.7105 15.1149 31.7973 15.1878 31.8686C15.2606 31.9399 15.3466 31.9942 15.4401 32.0281C15.5336 32.062 15.6326 32.0747 15.7309 32.0654C15.8293 32.0562 15.9247 32.0252 16.0113 31.9743C16.0978 31.9235 16.1736 31.854 16.2337 31.7701C16.2939 31.6863 16.3371 31.59 16.3607 31.4874C16.3843 31.3847 16.3878 31.2779 16.3708 31.1737V31.178H14.9676C14.961 31.2196 14.9579 31.2618 14.9583 31.3041V31.3069H14.9557ZM20.0701 11.6507C19.619 11.7766 19.2295 12.0817 18.9807 12.5039C18.7319 12.9262 18.6424 13.434 18.7303 13.9244L18.729 13.9117L19.6799 21.2642C19.7381 21.7359 19.9392 22.1496 20.2328 22.4612C20.4999 22.746 20.8663 22.9245 21.2723 22.9287H21.2736C21.3636 22.9287 21.4522 22.9188 21.5368 22.9018L21.5276 22.9032C21.9785 22.777 22.3678 22.4719 22.6166 22.0497C22.8653 21.6275 22.955 21.1198 22.8674 20.6295L22.8687 20.6422L21.9177 13.2897C21.8629 12.836 21.6684 12.4147 21.3649 12.0927C21.0887 11.7972 20.7157 11.6289 20.3254 11.6237H20.324C20.2328 11.6237 20.1442 11.6337 20.0582 11.6521L20.0675 11.6507H20.0701ZM14.8247 11.6507C14.3721 11.776 13.9813 12.0817 13.732 12.5054C13.4828 12.929 13.3939 13.4386 13.4836 13.9301L13.4823 13.9173L14.4333 21.2698C14.4915 21.7416 14.6925 22.1552 14.9861 22.4669C15.2533 22.7517 15.6196 22.9302 16.0256 22.9344H16.027C16.1169 22.9344 16.2055 22.9245 16.2902 22.9075L16.2809 22.9089C16.7323 22.7833 17.122 22.4783 17.3711 22.056C17.6202 21.6337 17.7099 21.1257 17.622 20.6352L17.6233 20.6479L16.6711 13.2912C16.6162 12.8374 16.4217 12.4161 16.1182 12.0941C15.8424 11.7981 15.4691 11.6297 15.0787 11.6252H15.0774C14.9874 11.6252 14.9001 11.6351 14.8155 11.6521L14.8247 11.6507ZM26.4489 10.0527C26.4493 7.91855 27.2411 5.872 28.6501 4.36322C29.3478 3.61615 30.1761 3.02359 31.0876 2.61938C31.9991 2.21517 32.976 2.00722 33.9625 2.00741C34.949 2.00759 35.9258 2.21591 36.8372 2.62047C37.7486 3.02502 38.5766 3.61789 39.2741 4.36522C39.9715 5.11256 40.5247 5.99972 40.9021 6.97606C41.2795 7.95239 41.4736 8.99879 41.4734 10.0555C41.4729 12.19 40.6808 14.2368 39.2713 15.7457C37.8619 17.2546 35.9506 18.102 33.9579 18.1014C31.9651 18.1009 30.0542 17.2524 28.6455 15.7427C27.2368 14.233 26.4457 12.1857 26.4463 10.0512L26.4489 10.0527ZM28.6007 10.0527C28.6007 10.8067 28.7394 11.5533 29.0088 12.2499C29.2782 12.9466 29.673 13.5795 30.1708 14.1127C30.6685 14.6459 31.2595 15.0688 31.9098 15.3573C32.5602 15.6459 33.2572 15.7944 33.9612 15.7944C34.6651 15.7944 35.3622 15.6459 36.0125 15.3573C36.6629 15.0688 37.2538 14.6459 37.7516 14.1127C38.2493 13.5795 38.6442 12.9466 38.9135 12.2499C39.1829 11.5533 39.3216 10.8067 39.3216 10.0527C39.3218 8.52947 38.757 7.0686 37.7516 5.99142C36.7462 4.91423 35.3825 4.30897 33.9605 4.30878C32.5385 4.30859 31.1746 4.9135 30.169 5.99042C29.1633 7.06734 28.5983 8.52806 28.5981 10.0512L28.6007 10.0527ZM32.8859 12.3491V11.2044H31.8173C31.5317 11.2044 31.2579 11.0829 31.056 10.8667C30.8541 10.6504 30.7407 10.3571 30.7407 10.0512C30.7407 9.7454 30.8541 9.45209 31.056 9.23583C31.2579 9.01957 31.5317 8.89807 31.8173 8.89807H32.8859V7.75341C32.8859 7.44757 32.9993 7.15426 33.2012 6.93799C33.4031 6.72173 33.677 6.60024 33.9625 6.60024C34.248 6.60024 34.5218 6.72173 34.7237 6.93799C34.9256 7.15426 35.0391 7.44757 35.0391 7.75341V8.89807H36.1077C36.3932 8.89807 36.6671 9.01957 36.869 9.23583C37.0709 9.45209 37.1843 9.7454 37.1843 10.0512C37.1843 10.3571 37.0709 10.6504 36.869 10.8667C36.6671 11.0829 36.3932 11.2044 36.1077 11.2044H35.0391V12.3477C35.0391 12.6535 34.9256 12.9468 34.7237 13.1631C34.5218 13.3793 34.248 13.5008 33.9625 13.5008C33.677 13.5008 33.4031 13.3793 33.2012 13.1631C32.9993 12.9468 32.8859 12.6535 32.8859 12.3477V12.3491Z" fill="#E2D9BF"/>
</svg>
