<svg width="26" height="26" viewBox="0 0 26 26" fill="none" xmlns="http://www.w3.org/2000/svg">
<path fill-rule="evenodd" clip-rule="evenodd" d="M18.4062 16.6237L25.1312 23.3487C25.3676 23.5853 25.5003 23.906 25.5002 24.2404C25.5001 24.5748 25.3671 24.8955 25.1306 25.1319C24.894 25.3682 24.5733 25.501 24.2389 25.5008C23.9045 25.5007 23.5838 25.3678 23.3475 25.1312L16.6225 18.4062C14.6121 19.9633 12.0841 20.6961 9.55261 20.4554C7.02117 20.2148 4.67649 19.0188 2.99556 17.1108C1.31462 15.2027 0.423692 12.726 0.504019 10.1844C0.584346 7.64284 1.62989 5.22731 3.42796 3.42924C5.22603 1.63117 7.64155 0.585627 10.1831 0.505301C12.7247 0.424974 15.2014 1.3159 17.1095 2.99684C19.0175 4.67778 20.2135 7.02246 20.4541 9.55389C20.6948 12.0853 19.962 14.6134 18.405 16.6237H18.4062ZM10.5 18C12.4891 18 14.3967 17.2098 15.8033 15.8033C17.2098 14.3968 18 12.4891 18 10.5C18 8.51086 17.2098 6.60321 15.8033 5.19668C14.3967 3.79016 12.4891 2.99999 10.5 2.99999C8.51083 2.99999 6.60318 3.79016 5.19665 5.19668C3.79013 6.60321 2.99995 8.51086 2.99995 10.5C2.99995 12.4891 3.79013 14.3968 5.19665 15.8033C6.60318 17.2098 8.51083 18 10.5 18Z" fill="black"/>
</svg>
